PathFileType	4	(X/Y/Z)	AB11\squats_1.trc
DataRate	CameraRate	NumFrames	NumMarkers	Units	OrigDataRate	OrigDataStartFrame	OrigNumFrames
200.000000	200.000000	4	35	mm	200.000000	237	317
Frame#	Time	C7			LSHO			STRN			LASI			RASI			LPSI			RPSI			LGTR			RGTR			LTHC			LTHL			LTHR			LKNE			LMKNE			LSHC			LSHL			LSHR			LANK			LMANK			LMT1			LMT5			LCAL			RTHC			RTHL			RTHR			RKNE			RMKNE			RSHC			RSHL			RSHR			RANK			RMANK			RMT1			RMT5			RCAL			
		X1	Y1	Z1	X2	Y2	Z2	X3	Y3	Z3	X4	Y4	Z4	X5	Y5	Z5	X6	Y6	Z6	X7	Y7	Z7	X8	Y8	Z8	X9	Y9	Z9	X10	Y10	Z10	X11	Y11	Z11	X12	Y12	Z12	X13	Y13	Z13	X14	Y14	Z14	X15	Y15	Z15	X16	Y16	Z16	X17	Y17	Z17	X18	Y18	Z18	X19	Y19	Z19	X20	Y20	Z20	X21	Y21	Z21	X22	Y22	Z22	X23	Y23	Z23	X24	Y24	Z24	X25	Y25	Z25	X26	Y26	Z26	X27	Y27	Z27	X28	Y28	Z28	X29	Y29	Z29	X30	Y30	Z30	X31	Y31	Z31	X32	Y32	Z32	X33	Y33	Z33	X34	Y34	Z34	X35	Y35	Z35	

238	22.84	-2300.627585694634	1104.231644530782	2509.929003908233	-2221.392173382439	1068.770465375862	2383.635809788706	-2209.862665105829	994.8901794442704	2492.591971720258	-2393.957243618181	692.3349215147758	2351.56351166366	-2397.744066321517	708.119671114625	2609.437791255414	-2586.902172949106	769.3612508354892	2430.993889335739	-2590.202228761575	770.1680153057613	2528.080390745054	-2463.61547531035	692.8754724202239	2270.573387873965	-2503.751884220773	701.0244950141558	2690.370776569406	-2379.632020784025	506.3235366098496	2272.385846414832	-2240.680535635903	581.5087726460935	2331.336097033792	-2326.962259583271	417.4854496905313	2330.329838499513	-2194.84451739006	411.3298577448743	2261.385299162955	-2190.591224634338	392.1139370174196	2388.120355978581	-2274.176843644774	334.0567546880462	2232.754459161501	-2258.581089608163	193.8811912127107	2250.681356320476	-2342.335193066157	244.7715185006709	2297.883340735286	-2349.504538593148	94.47618363612091	2218.673654715281	-2328.772553948876	97.72623184979541	2303.414324907	-2211.300566802908	69.49314505669854	2275.766961499093	-2249.127091072674	58.76156110496616	2193.875594071901	-2419.190173386506	66.50811771767205	2261.586433853648	-2227.663772697871	555.187541373618	2588.576160936244	-2370.13972361803	552.0875018098549	2696.514854881336	-2351.303170754185	473.5305052717528	2679.420673394361	-2208.803635988486	428.0408290843527	2698.864776358327	-2208.368785940171	386.3665119656898	2575.768882128298	-2252.472552482603	183.9336958007185	2683.38093148669	-2351.678385315778	218.4525960394891	2670.876397514025	-2289.992560557173	273.2220677935553	2731.931237731405	-2350.89752726305	91.95666586029202	2729.241827476831	-2330.355688449645	89.94658028875814	2645.848656240942	-2207.691334419345	73.17107114233882	2686.219186260922	-2241.279838455751	55.51867353368294	2762.57151696871	-2413.028315589479	62.88524263603038	2676.761938273732	
239	22.845	-2301.710055683487	1110.052559861641	2509.894112442773	-2222.50588406143	1074.779140376002	2383.507183137351	-2210.45908073067	1001.003563081251	2492.685374004182	-2392.866480994227	696.4197525999191	2351.677402302158	-2396.826020899308	712.3224195877549	2609.429878075115	-2585.847658005198	773.1471736147017	2431.094748005671	-2589.178085385397	773.9178945229594	2528.209459141499	-2462.466390185259	696.3635034614989	2270.659066625971	-2502.60081948236	704.4137722882623	2690.453370891881	-2379.652260223154	508.7655138931707	2272.332292521313	-2239.872250632468	582.6772643211848	2330.626108913804	-2327.613385565539	419.4061842962846	2330.216450260153	-2195.737387784694	411.8998811897411	2260.882919099438	-2191.355681635082	392.8861709847125	2387.558967184976	-2274.915162832309	334.347159230725	2232.284127048416	-2258.957334810502	194.2362550474475	2250.404185320011	-2342.807267305071	244.9844282643981	2297.571974048861	-2349.615451110959	94.46047052242848	2218.524119831993	-2328.904183430303	97.78643534651752	2303.193079596202	-2211.354505813204	69.67550149493357	2275.766213076787	-2249.142788301977	58.74828991402544	2193.882842032969	-2419.208028105791	66.48760008906065	2261.517180892389	-2226.943422595375	556.1878842815098	2589.128252951	-2369.719293567869	554.2999713873553	2696.662318699782	-2351.487694322541	475.5069723729057	2679.465093275478	-2209.460638349272	428.4399223629352	2699.157546371217	-2209.173284625513	386.9702155205992	2576.024842043204	-2252.768183325	184.1738121091405	2683.472795612138	-2352.059125949524	218.5238600350089	2671.132138336551	-2290.402677794113	273.3361894087185	2732.19627639178	-2350.990276801603	91.93486703000961	2729.368410629638	-2330.426958382236	90.0271297177763	2645.939924916136	-2207.754212458383	73.27378443192659	2686.196327188411	-2241.28034483895	55.5490842338935	2762.5422873022	-2413.054576710095	62.8850781394457	2676.802102787432	
240	22.85	-2302.818357008746	1115.861023124814	2509.847153030386	-2223.645720033004	1080.775689537667	2383.366032103344	-2211.067576058838	1007.112478239617	2492.775569745047	-2391.718270330886	700.5058530430605	2351.801667886295	-2395.865168697713	716.5045179416877	2609.435291175791	-2584.762629593491	776.9118375513748	2431.195351520621	-2588.124773143843	777.6467958487384	2528.335246818557	-2461.273872719587	699.8566374023651	2270.765390457305	-2501.415224593982	707.7967665513291	2690.522034427604	-2379.653409574127	511.2139807156369	2272.26280926602	-2239.056548281896	583.8284469535208	2329.909639173292	-2328.252145972904	421.3247914915921	2330.081324117891	-2196.640372706523	412.4739474064958	2260.356321086637	-2192.112621313991	393.6627124797278	2386.97462642512	-2275.669363689518	334.6426057248721	2231.806021819079	-2259.338331892815	194.5928780314155	2250.111000874614	-2343.278592245263	245.1971460267959	2297.259105312413	-2349.726927293153	94.44506484447784	2218.370828278913	-2329.028376338891	97.86177756418004	2302.973110404293	-2211.406324475307	69.85620395378749	2275.7555937036	-2249.157916746062	58.72894464073778	2193.883183937028	-2419.224386795257	66.46803348281389	2261.447747119832	-2226.215867874429	557.1686820935063	2589.669713807499	-2369.273773932235	556.5083286550595	2696.808500281544	-2351.651222541075	477.482672013174	2679.508881522148	-2210.121784466478	428.8403734428587	2699.44580833454	-2209.97421688097	387.5685532078229	2576.276942185646	-2253.063964176978	184.4146623087666	2683.565896089356	-2352.43926670228	218.5946855186181	2671.380275514796	-2290.819943519081	273.4550214303526	2732.454428616263	-2351.079487120275	91.91426712328683	2729.494748861298	-2330.493881567145	90.11133398302681	2646.032788647397	-2207.816745715907	73.3679222190883	2686.174026430831	-2241.280429776701	55.57150133985282	2762.512557210195	-2413.079406001716	62.88703794606369	2676.842692092579	
241	22.855	-2303.952774600805	1121.653681718417	2509.787317310258	-2224.811763333446	1086.756701752675	2383.21171994958	-2211.688054747672	1013.21389394479	2492.862628350208	-2390.513800728361	704.5904030545003	2351.935417121363	-2394.860304264803	720.6639009342981	2609.455256981014	-2583.646117288275	780.6556167486214	2431.295429244895	-2587.041061361837	781.3546354088462	2528.457779754791	-2460.038090231813	703.3542346313536	2270.891844379939	-2500.194724129822	711.1723381074532	2690.576606642631	-2379.636733236584	513.6687181436831	2272.178928212149	-2238.235368966797	584.9628577741843	2329.189446889015	-2328.880446197501	423.2414188580781	2329.926273589793	-2197.554434139515	413.0519859329423	2259.809223564525	-2192.863004689691	394.4422568130159	2386.371143403936	-2276.439703987664	334.9432221068276	2231.322549258327	-2259.724767869524	194.9493114325269	2249.803077954173	-2343.750281034208	245.4093301671882	2296.945612605605	-2349.839246371039	94.4297916913504	2218.213951538538	-2329.145483168005	97.95295692190264	2302.755551449193	-2211.456394428297	70.0357229909622	2275.735089071497	-2249.172725018587	58.70408907974456	2193.876809012873	-2419.239630219875	66.44976093932105	2261.378393743729	-2225.482813313791	558.1295110746164	2590.198283664089	-2368.803301603813	558.7119533086458	2696.952109785321	-2351.794355445674	479.4567766883121	2679.55010118617	-2210.786832195511	429.242902845885	2699.727177148674	-2210.771306641608	388.1617900253904	2576.523558729349	-2253.359741639257	184.6563068051836	2683.660194132002	-2352.818312034346	218.6649785885097	2671.619875500058	-2291.24496782246	273.5795502877313	2732.704218968449	-2351.164784748219	91.89514297168596	2729.620411854974	-2330.556521246806	90.19911750179891	2646.1271545594	-2207.878500605831	73.45308671213557	2686.15219344042	-2241.280334355708	55.58526436833712	2762.482071007684	-2413.102758150151	62.89093654555422	2676.883617551962	
